<svg width="1223" height="573" viewBox="0 0 1223 573" fill="none" xmlns="http://www.w3.org/2000/svg">
<path d="M26.6206 36.1742C23.2872 41.1758 -7.54682 82.5257 19.9538 84.8926C31.5502 85.8907 39.8414 82.1199 50.2242 78.4359C76.6808 69.0486 98.5002 52.4435 121.397 38.4503C150.837 20.4578 186.498 4.92877 224.533 8.22148C258.109 11.1283 257.475 31.9331 246.055 53.7824C241.425 62.6396 237.844 67.8591 231.138 75.9967C204.032 108.891 175.388 140.036 150.803 174.523C126.601 208.475 47.2918 263.534 40.3711 306.681C29.8979 371.975 146.49 352.628 172.325 339.954C218.49 317.307 251.794 281.459 285.264 247.874C319.69 213.328 355.222 179.443 395.964 149.696C431.976 123.402 471.914 101.641 514.443 83.0529C544.878 69.7508 578.396 55.3965 613.424 52.7371C636.418 50.9913 656.69 56.0881 664.992 75.2997C691.45 136.534 569.227 213.443 526.635 258.644C447.351 342.782 378.364 385.453 285.264 458.287C267.759 471.981 242.092 516.721 268.952 540.579C319.173 585.187 460.696 505.44 502.884 479.75C630.971 401.755 678.5 335.716 803.927 255.017C877.442 207.718 1051.58 83.0487 1146.84 75.2997C1180.06 72.597 1225.85 87.472 1212.67 135.261C1208.21 151.437 1142.52 246.684 1134.15 258.644C1096.89 311.917 978.414 354.979 935.669 405.323C914.676 430.049 890.095 457.668 871.742 484.336C861.001 499.944 850.368 518.755 850.54 537.302C850.83 568.657 899.317 566.374 926.279 562.7C969.058 556.871 995.926 536.935 1036.78 520.37C1053.29 513.678 1105.05 492.351 1120.17 504.709" stroke="url(#paint0_linear_332_218)" stroke-opacity="0.45" stroke-width="15.4154" stroke-linecap="round"/>
<defs>
<linearGradient id="paint0_linear_332_218" x1="-2389.35" y1="-975.173" x2="1191.46" y2="-975.173" gradientUnits="userSpaceOnUse">
<stop offset="0.68" stop-color="#34BEED"/>
<stop offset="1" stop-color="#2C48DA"/>
</linearGradient>
</defs>
</svg>
