<svg width="547" height="196" viewBox="0 0 547 196" fill="none" xmlns="http://www.w3.org/2000/svg">
<path d="M507 99.1197L508.286 94.2878L526.886 99.2374L508.229 103.966L507 99.1197ZM507 99.1197C508.286 94.2878 508.284 94.2873 508.28 94.2862L508.262 94.2815L508.193 94.2632L507.921 94.1911C507.681 94.1274 507.323 94.0326 506.852 93.908C505.908 93.6587 504.51 93.2901 502.687 92.812C499.04 91.8558 493.695 90.4615 486.893 88.7079C473.289 85.2007 453.858 80.2556 430.542 74.5023C383.915 62.9972 321.725 48.2533 259.518 35.3117C197.356 22.3794 135.003 11.2094 88.1139 6.89975C64.7319 4.75064 44.8451 4.27086 30.6606 6.26157C23.6131 7.25064 17.4886 8.90979 12.9938 11.6285C8.3013 14.4668 5 18.7599 5 24.581V24.919V25.2565V25.5937V25.9305V26.2668V26.6028V26.9383V27.2735V27.6083V27.9426V28.2766V28.6102V28.9434V29.2762V29.6086V29.9406V30.2723V30.6035V30.9344V31.2649V31.595V31.9247V32.2541V32.583V32.9116V33.2399V33.5677V33.8952V34.2223V34.549V34.8754V35.2014V35.527V35.8523V36.1772V36.5018V36.8259V37.1498V37.4733V37.7964V38.1191V38.4415V38.7636V39.0853V39.4067V39.7277V40.0483V40.3686V40.6886V41.0082V41.3275V41.6465V41.9651V42.2833V42.6013V42.9189V43.2361V43.5531V43.8697V44.1859V44.5019V44.8175V45.1328V45.4477V45.7624V46.0767V46.3907V46.7044V47.0177V47.3308V47.6435V47.9559V48.268V48.5798V48.8913V49.2025V49.5133V49.8239V50.1341V50.4441V50.7537V51.063V51.3721V51.6808V51.9893V52.2974V52.6053V52.9129V53.2201V53.5271V53.8338V54.1402V54.4463V54.7522V55.0577V55.363V55.668V55.9727V56.2771V56.5812V56.8851V57.1887V57.492V57.7951V58.0979V58.4004V58.7026V59.0046V59.3063V59.6077V59.9089V60.2098V60.5105V60.8109V61.111V61.4109V61.7105V62.0099V62.309V62.6079V62.9065V63.2049V63.503V63.8009V64.0986V64.3959V64.6931V64.99V65.2867V65.5831V65.8793V66.1753V66.471V66.7665V67.0617V67.3568V67.6516V67.9461V68.2405V68.5346V68.8285V69.1222V69.4156V69.7089V70.0019V70.2947V70.5872V70.8796V71.1718V71.4637V71.7554V72.047V72.3383V72.6294V72.9203V73.211V73.5015V73.7918V74.0819V74.3717V74.6614V74.9509V75.2402V75.5294V75.8183V76.107V76.3955V76.6839V76.9721V77.26V77.5478V77.8354V78.1229V78.4101V78.6972V78.9841V79.2708V79.5573V79.8437V80.1299V80.4159V80.7017V80.9874V81.2729V81.5583V81.8434V82.1285V82.4133V82.698V82.9825V83.2669V83.5511V83.8352V84.1191V84.4029V84.6865V84.9699V85.2532V85.5364V85.8194V86.1023V86.385V86.6676V86.95V87.2323V87.5145V87.7965V88.0784V88.3601V88.6417V88.9232V89.2046V89.4858V89.7669V90.0479V90.3287V90.6094V90.89V91.1705V91.4509V91.7311V92.0112V92.2912V92.5711V92.8509V93.1305V93.4101V93.6895V93.9689V94.2481V94.5272V94.8062V95.0851V95.3639V95.6426V95.9212V96.1998V96.4782V96.7565V97.0347V97.3128V97.5909V97.8688V98.1467V98.4245V98.7021V98.9797V99.2573V99.5347V99.812V100.089V100.367V100.644V100.921V101.198V101.475V101.751V102.028V102.305V102.581V102.858V103.134V103.411V103.687V103.964V104.24V104.516V104.792V105.068V105.344V105.62V105.896V106.172V106.448V106.723V106.999V107.275V107.55V107.826V108.101V108.377V108.652V108.928V109.203V109.479V109.754V110.029V110.304V110.58V110.855V111.13V111.405V111.68V111.955V112.23V112.505V112.78V113.055V113.33V113.605V113.88V114.155V114.43V114.705V114.98V115.255V115.53V115.805V116.08V116.355V116.629V116.904V117.179V117.454V117.729V118.004V118.279V118.554V118.829V119.104V119.379V119.654V119.928V120.203V120.478V120.754V121.029V121.304V121.579V121.854V122.129V122.404V122.679V122.955V123.23V123.505V123.78V124.056V124.331V124.607V124.882V125.158V125.433V125.709V125.984V126.26V126.536V126.811V127.087V127.363V127.639V127.915V128.191V128.467V128.743V129.019V129.296V129.572V129.848V130.125V130.401V130.678V130.955V131.231V131.508V131.785V132.062V132.339V132.616V132.893V133.17V133.447V133.725V134.002V134.28V134.557V134.835V135.113V135.391V135.669V135.947V136.225V136.503V136.782V137.06V137.339V137.617V137.896V138.175V138.454V138.733V139.012V139.291V139.571V139.85V140.13V140.409V140.689V140.969V141.249V141.529V141.81V142.09V142.37V142.651V142.932V143.213V143.494V143.775V144.056V144.337V144.619V144.901V145.182V145.464V145.746V146.029V146.311V146.593V146.876V147.159V147.442V147.725V148.008V148.291V148.575V148.858V149.142V149.426V149.71V149.995V150.279V150.564V150.848V151.133V151.418V151.703V151.989V152.274V152.56V152.846V153.132V153.418V153.705V153.991V154.278V154.565V154.852V155.139V155.427V155.715V156.002V156.29V156.579V156.867V157.156V157.444V157.733V158.023V158.312V158.601V158.891V159.181V159.471V159.762V160.052V160.343V160.634V160.925V161.216V161.508V161.8V162.092V162.384V162.676V162.969V163.262V163.555V163.848V164.142V164.436V164.73V165.024V165.318V165.613V165.908V166.203V166.498V166.794V167.089V167.385V167.682V167.978V168.275V168.572V168.869V169.167V169.464V169.762V170.06V170.359V170.658V170.956V171.256V171.555V171.855V172.155V172.455V172.755V173.056V173.357V173.658C5 179.401 8.66415 183.324 13.2653 185.729C17.7326 188.064 23.8077 189.432 30.8149 190.194C44.938 191.73 64.7736 190.983 88.1451 188.687C135.001 184.085 197.33 173.118 259.489 160.579C321.687 148.032 383.87 133.879 430.493 122.866C453.807 117.358 473.237 112.635 486.839 109.287C493.641 107.614 498.986 106.284 502.631 105.373C504.454 104.917 505.852 104.566 506.795 104.328C507.267 104.209 507.624 104.119 507.865 104.058L508.136 103.99L508.205 103.972L508.222 103.968C508.226 103.967 508.229 103.966 507 99.1197Z" fill="url(#paint0_linear_71_11)" stroke="#C1F8B8" stroke-width="10"/>
<defs>
<linearGradient id="paint0_linear_71_11" x1="507" y1="98" x2="10" y2="98" gradientUnits="userSpaceOnUse">
<stop offset="0.239583" stop-color="#A5E39A"/>
<stop offset="1" stop-color="#54C941"/>
</linearGradient>
</defs>
</svg>
