<svg width="441" height="159" viewBox="0 0 441 159" fill="none" xmlns="http://www.w3.org/2000/svg">
<path d="M40 80.0767L38.7142 75.2449L20.1145 80.1944L38.7715 84.9235L40 80.0767ZM40 80.0767C38.7142 75.2449 38.716 75.2444 38.7192 75.2436L38.7331 75.2399L38.7875 75.2254L39.0016 75.1686C39.1909 75.1184 39.4726 75.0438 39.8437 74.9457C40.5861 74.7496 41.6863 74.4596 43.1205 74.0835C45.989 73.3312 50.1937 72.2345 55.5438 70.8552C66.2437 68.0966 81.5263 64.2073 99.8643 59.6823C136.534 50.6338 185.449 39.0371 234.38 28.8572C283.267 18.6866 332.345 9.89296 369.278 6.49835C387.681 4.80679 403.42 4.41925 414.7 6.00243C420.296 6.78773 425.279 8.11818 428.996 10.3665C432.911 12.7343 435.797 16.4151 435.797 21.4654V21.7312V21.9966V22.2617V22.5265V22.791V23.0552V23.319V23.5826V23.8458V24.1087V24.3714V24.6337V24.8956V25.1573V25.4187V25.6798V25.9406V26.201V26.4612V26.7211V26.9807V27.2399V27.4989V27.7576V28.016V28.274V28.5318V28.7893V29.0466V29.3035V29.5601V29.8164V30.0725V30.3283V30.5838V30.839V31.0939V31.3485V31.6029V31.8569V32.1107V32.3642V32.6175V32.8704V33.1231V33.3755V33.6277V33.8796V34.1312V34.3825V34.6336V34.8844V35.1349V35.3851V35.6351V35.8849V36.1343V36.3836V36.6325V36.8812V37.1296V37.3778V37.6257V37.8734V38.1208V38.3679V38.6148V38.8615V39.1079V39.354V39.5999V39.8456V40.091V40.3362V40.5811V40.8258V41.0702V41.3144V41.5584V41.8021V42.0456V42.2888V42.5318V42.7746V43.0171V43.2594V43.5015V43.7434V43.985V44.2263V44.4675V44.7084V44.9492V45.1896V45.4299V45.6699V45.9097V46.1493V46.3887V46.6279V46.8668V47.1055V47.344V47.5823V47.8204V48.0583V48.296V48.5334V48.7706V49.0077V49.2445V49.4811V49.7175V49.9537V50.1897V50.4256V50.6612V50.8966V51.1318V51.3668V51.6016V51.8362V52.0706V52.3049V52.5389V52.7727V53.0064V53.2399V53.4731V53.7062V53.9391V54.1719V54.4044V54.6367V54.8689V55.1009V55.3327V55.5643V55.7958V56.0271V56.2581V56.4891V56.7198V56.9504V57.1808V57.411V57.6411V57.871V58.1007V58.3303V58.5597V58.7889V59.018V59.2469V59.4756V59.7042V59.9326V60.1609V60.389V60.6169V60.8447V61.0724V61.2999V61.5272V61.7544V61.9814V62.2083V62.435V62.6616V62.888V63.1143V63.3405V63.5665V63.7924V64.0181V64.2437V64.4691V64.6944V64.9196V65.1447V65.3696V65.5943V65.819V66.0435V66.2678V66.4921V66.7162V66.9402V67.164V67.3878V67.6114V67.8349V68.0582V68.2815V68.5046V68.7276V68.9505V69.1733V69.3959V69.6185V69.8409V70.0632V70.2854V70.5075V70.7295V70.9513V71.1731V71.3947V71.6163V71.8377V72.0591V72.2803V72.5014V72.7225V72.9434V73.1642V73.385V73.6056V73.8261V74.0466V74.2669V74.4872V74.7074V74.9275V75.1475V75.3674V75.5872V75.8069V76.0265V76.2461V76.4656V76.685V76.9043V77.1235V77.3427V77.5617V77.7807V77.9997V78.2185V78.4373V78.656V78.8746V79.0932V79.3117V79.5301V79.7484V79.9667V80.1849V80.4031V80.6212V80.8392V81.0572V81.2751V81.4929V81.7107V81.9284V82.1461V82.3637V82.5813V82.7988V83.0162V83.2337V83.451V83.6683V83.8856V84.1028V84.3199V84.5371V84.7541V84.9712V85.1882V85.4051V85.622V85.8389V86.0557V86.2725V86.4893V86.706V86.9227V87.1393V87.356V87.5726V87.7891V88.0057V88.2222V88.4386V88.6551V88.8715V89.0879V89.3043V89.5207V89.737V89.9534V90.1697V90.386V90.6022V90.8185V91.0347V91.2509V91.4672V91.6834V91.8996V92.1158V92.3319V92.5481V92.7643V92.9804V93.1966V93.4127V93.6289V93.845V94.0612V94.2773V94.4935V94.7097V94.9258V95.142V95.3582V95.5743V95.7905V96.0067V96.2229V96.4391V96.6554V96.8716V97.0879V97.3042V97.5205V97.7368V97.9531V98.1694V98.3858V98.6022V98.8186V99.0351V99.2515V99.468V99.6845V99.9011V100.118V100.334V100.551V100.768V100.984V101.201V101.418V101.635V101.851V102.068V102.285V102.502V102.719V102.936V103.153V103.37V103.588V103.805V104.022V104.239V104.457V104.674V104.892V105.109V105.327V105.544V105.762V105.98V106.198V106.415V106.633V106.851V107.069V107.288V107.506V107.724V107.942V108.161V108.379V108.598V108.816V109.035V109.254V109.472V109.691V109.91V110.129V110.348V110.567V110.787V111.006V111.225V111.445V111.664V111.884V112.104V112.324V112.544V112.764V112.984V113.204V113.424V113.645V113.865V114.086V114.306V114.527V114.748V114.969V115.19V115.411V115.632V115.854V116.075V116.297V116.519V116.74V116.962V117.184V117.406V117.629V117.851V118.073V118.296V118.519V118.741V118.964V119.187V119.411V119.634V119.857V120.081V120.304V120.528V120.752V120.976V121.2V121.424V121.649V121.873V122.098V122.323V122.548V122.773V122.998V123.223V123.449V123.675V123.9V124.126V124.352V124.579V124.805V125.031V125.258V125.485V125.712V125.939V126.166V126.393V126.621V126.849V127.076V127.304V127.533V127.761V127.989V128.218V128.447V128.676V128.905V129.134V129.363V129.593V129.823V130.053V130.283V130.513V130.744V130.974V131.205V131.436V131.667V131.898V132.13V132.362V132.594V132.826V133.058V133.29V133.523V133.756V133.988V134.222V134.455V134.688V134.922V135.156V135.39V135.624V135.859V136.094V136.328V136.564V136.799V137.034V137.27V137.506V137.742V137.978V138.215V138.451V138.688C435.797 143.744 432.548 147.128 428.725 149.126C425.035 151.055 420.101 152.148 414.546 152.753C403.327 153.973 387.64 153.376 369.247 151.569C332.347 147.944 283.293 139.312 234.41 129.451C185.487 119.582 136.579 108.45 99.9126 99.7885C81.5766 95.4571 66.2958 91.742 55.5973 89.1093C50.248 87.7929 46.0439 86.747 43.1761 86.03C41.7421 85.6715 40.6422 85.3952 39.9002 85.2083C39.5291 85.1149 39.2476 85.0438 39.0585 84.9961L38.8445 84.942L38.7902 84.9282L38.7764 84.9247C38.7732 84.9239 38.7715 84.9235 40 80.0767Z" fill="url(#paint0_linear_69_7)" stroke="#C1F8B8" stroke-width="10"/>
<defs>
<linearGradient id="paint0_linear_69_7" x1="40" y1="79.1963" x2="430.797" y2="79.1963" gradientUnits="userSpaceOnUse">
<stop offset="0.239583" stop-color="#A5E39A"/>
<stop offset="1" stop-color="#54C941"/>
</linearGradient>
</defs>
</svg>
