<svg width="407" height="149" viewBox="0 0 407 149" fill="none" xmlns="http://www.w3.org/2000/svg">
<path d="M40 75.3207L38.6898 70.4954L20.4863 75.4382L38.748 80.1614L40 75.3207ZM40 75.3207C38.6898 70.4954 38.6914 70.4949 38.6944 70.4941L38.7071 70.4907L38.7569 70.4772L38.9528 70.4241C39.1258 70.3773 39.3833 70.3077 39.7225 70.2163C40.4009 70.0334 41.4063 69.763 42.7168 69.4123C45.3379 68.7109 49.1797 67.6885 54.0678 66.4026C63.8438 63.8308 77.8064 60.205 94.5604 55.9866C128.062 47.5514 172.753 36.7401 217.462 27.2493C262.124 17.7681 306.982 9.56604 340.752 6.3989C357.573 4.82129 372.001 4.45482 382.369 5.93961C387.51 6.67583 392.141 7.9292 395.617 10.0746C399.299 12.3474 402 15.8787 402 20.6872V20.9349V21.1824V21.4295V21.6763V21.9228V22.1691V22.415V22.6607V22.9061V23.1511V23.3959V23.6404V23.8846V24.1286V24.3722V24.6156V24.8587V25.1014V25.344V25.5862V25.8281V26.0698V26.3112V26.5523V26.7932V27.0338V27.2741V27.5141V27.7538V27.9933V28.2325V28.4715V28.7102V28.9486V29.1867V29.4246V29.6622V29.8996V30.1366V30.3735V30.61V30.8464V31.0824V31.3182V31.5537V31.789V32.0241V32.2588V32.4934V32.7276V32.9617V33.1954V33.4289V33.6622V33.8953V34.128V34.3606V34.5929V34.8249V35.0567V35.2883V35.5196V35.7507V35.9816V36.2122V36.4426V36.6727V36.9026V37.1323V37.3618V37.591V37.82V38.0487V38.2772V38.5055V38.7336V38.9615V39.1891V39.4165V39.6437V39.8706V40.0974V40.3239V40.5502V40.7762V41.0021V41.2277V41.4532V41.6784V41.9034V42.1282V42.3528V42.5771V42.8013V43.0253V43.249V43.4725V43.6959V43.919V44.1419V44.3647V44.5872V44.8095V45.0316V45.2535V45.4753V45.6968V45.9181V46.1393V46.3602V46.581V46.8015V47.0219V47.2421V47.4621V47.6819V47.9015V48.1209V48.3402V48.5592V48.7781V48.9968V49.2153V49.4336V49.6518V49.8698V50.0876V50.3052V50.5226V50.7399V50.957V51.1739V51.3907V51.6072V51.8237V52.0399V52.256V52.4719V52.6876V52.9032V53.1186V53.3339V53.549V53.7639V53.9786V54.1933V54.4077V54.622V54.8361V55.0501V55.2639V55.4776V55.6911V55.9045V56.1177V56.3308V56.5437V56.7565V56.9691V57.1816V57.3939V57.6061V57.8181V58.03V58.2418V58.4534V58.6649V58.8763V59.0875V59.2985V59.5095V59.7203V59.931V60.1415V60.3519V60.5622V60.7723V60.9823V61.1922V61.402V61.6116V61.8212V62.0305V62.2398V62.449V62.658V62.8669V63.0757V63.2843V63.4929V63.7013V63.9096V64.1179V64.3259V64.5339V64.7418V64.9496V65.1572V65.3647V65.5722V65.7795V65.9867V66.1938V66.4009V66.6078V66.8146V67.0213V67.2279V67.4344V67.6408V67.8471V68.0534V68.2595V68.4655V68.6714V68.8773V69.083V69.2887V69.4943V69.6998V69.9052V70.1105V70.3157V70.5209V70.7259V70.9309V71.1358V71.3406V71.5454V71.75V71.9546V72.1591V72.3635V72.5679V72.7722V72.9764V73.1805V73.3846V73.5886V73.7925V73.9963V74.2001V74.4039V74.6075V74.8111V75.0146V75.2181V75.4215V75.6249V75.8282V76.0314V76.2346V76.4377V76.6407V76.8437V77.0467V77.2496V77.4524V77.6552V77.858V78.0607V78.2633V78.4659V78.6685V78.871V79.0735V79.2759V79.4783V79.6806V79.8829V80.0852V80.2874V80.4896V80.6917V80.8939V81.0959V81.298V81.5V81.702V81.9039V82.1059V82.3078V82.5096V82.7115V82.9133V83.1151V83.3168V83.5186V83.7203V83.922V84.1237V84.3253V84.527V84.7286V84.9302V85.1318V85.3334V85.5349V85.7365V85.938V86.1396V86.3411V86.5426V86.7441V86.9456V87.1471V87.3486V87.5501V87.7516V87.9531V88.1545V88.356V88.5575V88.759V88.9605V89.162V89.3635V89.565V89.7665V89.968V90.1695V90.371V90.5726V90.7741V90.9757V91.1773V91.3789V91.5805V91.7821V91.9838V92.1854V92.3871V92.5888V92.7906V92.9923V93.1941V93.3959V93.5977V93.7995V94.0014V94.2033V94.4053V94.6072V94.8092V95.0112V95.2133V95.4154V95.6175V95.8197V96.0219V96.2241V96.4264V96.6287V96.831V97.0334V97.2359V97.4383V97.6409V97.8434V98.0461V98.2487V98.4514V98.6542V98.857V99.0599V99.2628V99.4657V99.6688V99.8718V100.075V100.278V100.481V100.685V100.888V101.091V101.295V101.499V101.702V101.906V102.11V102.313V102.517V102.721V102.925V103.129V103.333V103.538V103.742V103.946V104.151V104.355V104.56V104.765V104.969V105.174V105.379V105.584V105.789V105.994V106.2V106.405V106.61V106.816V107.021V107.227V107.433V107.639V107.845V108.051V108.257V108.463V108.67V108.876V109.083V109.289V109.496V109.703V109.91V110.117V110.324V110.531V110.739V110.946V111.154V111.361V111.569V111.777V111.985V112.193V112.401V112.61V112.818V113.027V113.235V113.444V113.653V113.862V114.071V114.281V114.49V114.7V114.909V115.119V115.329V115.539V115.749V115.96V116.17V116.381V116.591V116.802V117.013V117.224V117.435V117.647V117.858V118.07V118.282V118.494V118.706V118.918V119.131V119.343V119.556V119.768V119.981V120.195V120.408V120.621V120.835V121.049V121.262V121.476V121.691V121.905V122.119V122.334V122.549V122.764V122.979V123.194V123.41V123.625V123.841V124.057V124.273V124.489V124.706V124.923V125.139V125.356V125.574V125.791V126.008V126.226V126.444V126.662V126.88V127.098V127.317V127.536V127.755V127.974V128.193V128.413V128.632V128.852V129.072V129.292V129.513V129.733V129.954C402 134.785 398.946 138.044 395.344 139.965C391.893 141.806 387.311 142.834 382.212 143.4C371.906 144.544 357.53 143.983 340.72 142.298C306.984 138.916 262.151 130.865 217.492 121.672C172.792 112.472 128.108 102.094 94.6096 94.0196C77.8576 89.9817 63.8967 86.5183 54.1222 84.064C49.2348 82.8368 45.3937 81.8618 42.7733 81.1932C41.4631 80.859 40.458 80.6013 39.7798 80.4271C39.4408 80.34 39.1834 80.2737 39.0106 80.2291L38.8149 80.1787L38.7652 80.1658L38.7526 80.1626C38.7496 80.1618 38.748 80.1614 40 75.3207Z" fill="url(#paint0_linear_69_8)" stroke="#C1F8B8" stroke-width="10"/>
<defs>
<linearGradient id="paint0_linear_69_8" x1="40" y1="74.5" x2="397" y2="74.5" gradientUnits="userSpaceOnUse">
<stop offset="0.239583" stop-color="#A5E39A"/>
<stop offset="1" stop-color="#54C941"/>
</linearGradient>
</defs>
</svg>
