<svg width="18" height="2562" viewBox="0 0 18 2562" fill="none" xmlns="http://www.w3.org/2000/svg">
<path d="M10.5 13L17.6603 -2H0.339746L7.5 13H10.5ZM7.5 2547L0.339746 2562H17.6603L10.5 2547H7.5ZM7.5 3.99065V7.98442H10.5V3.99065H7.5ZM7.5 11.9782V15.972H10.5V11.9782H7.5ZM7.5 19.9657V23.9595H10.5V19.9657H7.5ZM7.5 27.9533V31.947H10.5V27.9533H7.5ZM7.5 35.9408V39.9346H10.5V35.9408H7.5ZM7.5 43.9283V47.9221H10.5V43.9283H7.5ZM7.5 51.9159V55.9097H10.5V51.9159H7.5ZM7.5 59.9034V63.8972H10.5V59.9034H7.5ZM7.5 67.891V71.8847H10.5V67.891H7.5ZM7.5 75.8785V79.8723H10.5V75.8785H7.5ZM7.5 83.866V87.8598H10.5V83.866H7.5ZM7.5 91.8536V95.8473H10.5V91.8536H7.5ZM7.5 99.8411V103.835H10.5V99.8411H7.5ZM7.5 107.829V111.822H10.5V107.829H7.5ZM7.5 115.816V119.81H10.5V115.816H7.5ZM7.5 123.804V127.797H10.5V123.804H7.5ZM7.5 131.791V135.785H10.5V131.791H7.5ZM7.5 139.779V143.773H10.5V139.779H7.5ZM7.5 147.766V151.76H10.5V147.766H7.5ZM7.5 155.754V159.748H10.5V155.754H7.5ZM7.5 163.741V167.735H10.5V163.741H7.5ZM7.5 171.729V175.723H10.5V171.729H7.5ZM7.5 179.717V183.71H10.5V179.717H7.5ZM7.5 187.704V191.698H10.5V187.704H7.5ZM7.5 195.692V199.685H10.5V195.692H7.5ZM7.5 203.679V207.673H10.5V203.679H7.5ZM7.5 211.667V215.661H10.5V211.667H7.5ZM7.5 219.654V223.648H10.5V219.654H7.5ZM7.5 227.642V231.636H10.5V227.642H7.5ZM7.5 235.629V239.623H10.5V235.629H7.5ZM7.5 243.617V247.611H10.5V243.617H7.5ZM7.5 251.604V255.598H10.5V251.604H7.5ZM7.5 259.592V263.586H10.5V259.592H7.5ZM7.5 267.58V271.573H10.5V267.58H7.5ZM7.5 275.567V279.561H10.5V275.567H7.5ZM7.5 283.555V287.548H10.5V283.555H7.5ZM7.5 291.542V295.536H10.5V291.542H7.5ZM7.5 299.53V303.524H10.5V299.53H7.5ZM7.5 307.517V311.511H10.5V307.517H7.5ZM7.5 315.505V319.499H10.5V315.505H7.5ZM7.5 323.492V327.486H10.5V323.492H7.5ZM7.5 331.48V335.474H10.5V331.48H7.5ZM7.5 339.468V343.461H10.5V339.468H7.5ZM7.5 347.455V351.449H10.5V347.455H7.5ZM7.5 355.443V359.436H10.5V355.443H7.5ZM7.5 363.43V367.424H10.5V363.43H7.5ZM7.5 371.418V375.411H10.5V371.418H7.5ZM7.5 379.405V383.399H10.5V379.405H7.5ZM7.5 387.393V391.387H10.5V387.393H7.5ZM7.5 395.38V399.374H10.5V395.38H7.5ZM7.5 403.368V407.362H10.5V403.368H7.5ZM7.5 411.355V415.349H10.5V411.355H7.5ZM7.5 419.343V423.337H10.5V419.343H7.5ZM7.5 427.331V431.324H10.5V427.331H7.5ZM7.5 435.318V439.312H10.5V435.318H7.5ZM7.5 443.306V447.299H10.5V443.306H7.5ZM7.5 451.293V455.287H10.5V451.293H7.5ZM7.5 459.281V463.275H10.5V459.281H7.5ZM7.5 467.268V471.262H10.5V467.268H7.5ZM7.5 475.256V479.25H10.5V475.256H7.5ZM7.5 483.243V487.237H10.5V483.243H7.5ZM7.5 491.231V495.225H10.5V491.231H7.5ZM7.5 499.218V503.212H10.5V499.218H7.5ZM7.5 507.206V511.2H10.5V507.206H7.5ZM7.5 515.194V519.187H10.5V515.194H7.5ZM7.5 523.181V527.175H10.5V523.181H7.5ZM7.5 531.169V535.162H10.5V531.169H7.5ZM7.5 539.156V543.15H10.5V539.156H7.5ZM7.5 547.144V551.138H10.5V547.144H7.5ZM7.5 555.131V559.125H10.5V555.131H7.5ZM7.5 563.119V567.113H10.5V563.119H7.5ZM7.5 571.106V575.1H10.5V571.106H7.5ZM7.5 579.094V583.088H10.5V579.094H7.5ZM7.5 587.081V591.075H10.5V587.081H7.5ZM7.5 595.069V599.063H10.5V595.069H7.5ZM7.5 603.057V607.05H10.5V603.057H7.5ZM7.5 611.044V615.038H10.5V611.044H7.5ZM7.5 619.032V623.025H10.5V619.032H7.5ZM7.5 627.019V631.013H10.5V627.019H7.5ZM7.5 635.007V639.001H10.5V635.007H7.5ZM7.5 642.994V646.988H10.5V642.994H7.5ZM7.5 650.982V654.976H10.5V650.982H7.5ZM7.5 658.969V662.963H10.5V658.969H7.5ZM7.5 666.957V670.951H10.5V666.957H7.5ZM7.5 674.945V678.938H10.5V674.945H7.5ZM7.5 682.932V686.926H10.5V682.932H7.5ZM7.5 690.92V694.913H10.5V690.92H7.5ZM7.5 698.907V702.901H10.5V698.907H7.5ZM7.5 706.895V710.889H10.5V706.895H7.5ZM7.5 714.882V718.876H10.5V714.882H7.5ZM7.5 722.87V726.864H10.5V722.87H7.5ZM7.5 730.857V734.851H10.5V730.857H7.5ZM7.5 738.845V742.839H10.5V738.845H7.5ZM7.5 746.832V750.826H10.5V746.832H7.5ZM7.5 754.82V758.814H10.5V754.82H7.5ZM7.5 762.808V766.801H10.5V762.808H7.5ZM7.5 770.795V774.789H10.5V770.795H7.5ZM7.5 778.783V782.776H10.5V778.783H7.5ZM7.5 786.77V790.764H10.5V786.77H7.5ZM7.5 794.758V798.752H10.5V794.758H7.5ZM7.5 802.745V806.739H10.5V802.745H7.5ZM7.5 810.733V814.727H10.5V810.733H7.5ZM7.5 818.72V822.714H10.5V818.72H7.5ZM7.5 826.708V830.702H10.5V826.708H7.5ZM7.5 834.695V838.689H10.5V834.695H7.5ZM7.5 842.683V846.677H10.5V842.683H7.5ZM7.5 850.671V854.664H10.5V850.671H7.5ZM7.5 858.658V862.652H10.5V858.658H7.5ZM7.5 866.646V870.639H10.5V866.646H7.5ZM7.5 874.633V878.627H10.5V874.633H7.5ZM7.5 882.621V886.615H10.5V882.621H7.5ZM7.5 890.608V894.602H10.5V890.608H7.5ZM7.5 898.596V902.59H10.5V898.596H7.5ZM7.5 906.583V910.577H10.5V906.583H7.5ZM7.5 914.571V918.565H10.5V914.571H7.5ZM7.5 922.559V926.552H10.5V922.559H7.5ZM7.5 930.546V934.54H10.5V930.546H7.5ZM7.5 938.534V942.527H10.5V938.534H7.5ZM7.5 946.521V950.515H10.5V946.521H7.5ZM7.5 954.509V958.503H10.5V954.509H7.5ZM7.5 962.496V966.49H10.5V962.496H7.5ZM7.5 970.484V974.478H10.5V970.484H7.5ZM7.5 978.471V982.465H10.5V978.471H7.5ZM7.5 986.459V990.453H10.5V986.459H7.5ZM7.5 994.446V998.44H10.5V994.446H7.5ZM7.5 1002.43V1006.43H10.5V1002.43H7.5ZM7.5 1010.42V1014.42H10.5V1010.42H7.5ZM7.5 1018.41V1022.4H10.5V1018.41H7.5ZM7.5 1026.4V1030.39H10.5V1026.4H7.5ZM7.5 1034.38V1038.38H10.5V1034.38H7.5ZM7.5 1042.37V1046.37H10.5V1042.37H7.5ZM7.5 1050.36V1054.35H10.5V1050.36H7.5ZM7.5 1058.35V1062.34H10.5V1058.35H7.5ZM7.5 1066.33V1070.33H10.5V1066.33H7.5ZM7.5 1074.32V1078.32H10.5V1074.32H7.5ZM7.5 1082.31V1086.3H10.5V1082.31H7.5ZM7.5 1090.3V1094.29H10.5V1090.3H7.5ZM7.5 1098.28V1102.28H10.5V1098.28H7.5ZM7.5 1106.27V1110.27H10.5V1106.27H7.5ZM7.5 1114.26V1118.25H10.5V1114.26H7.5ZM7.5 1122.25V1126.24H10.5V1122.25H7.5ZM7.5 1130.23V1134.23H10.5V1130.23H7.5ZM7.5 1138.22V1142.22H10.5V1138.22H7.5ZM7.5 1146.21V1150.2H10.5V1146.21H7.5ZM7.5 1154.2V1158.19H10.5V1154.2H7.5ZM7.5 1162.18V1166.18H10.5V1162.18H7.5ZM7.5 1170.17V1174.17H10.5V1170.17H7.5ZM7.5 1178.16V1182.15H10.5V1178.16H7.5ZM7.5 1186.15V1190.14H10.5V1186.15H7.5ZM7.5 1194.14V1198.13H10.5V1194.14H7.5ZM7.5 1202.12V1206.12H10.5V1202.12H7.5ZM7.5 1210.11V1214.1H10.5V1210.11H7.5ZM7.5 1218.1V1222.09H10.5V1218.1H7.5ZM7.5 1226.09V1230.08H10.5V1226.09H7.5ZM7.5 1234.07V1238.07H10.5V1234.07H7.5ZM7.5 1242.06V1246.05H10.5V1242.06H7.5ZM7.5 1250.05V1254.04H10.5V1250.05H7.5ZM7.5 1258.04V1262.03H10.5V1258.04H7.5ZM7.5 1266.02V1270.02H10.5V1266.02H7.5ZM7.5 1274.01V1278H10.5V1274.01H7.5ZM7.5 1282V1285.99H10.5V1282H7.5ZM7.5 1289.99V1293.98H10.5V1289.99H7.5ZM7.5 1297.97V1301.97H10.5V1297.97H7.5ZM7.5 1305.96V1309.95H10.5V1305.96H7.5ZM7.5 1313.95V1317.94H10.5V1313.95H7.5ZM7.5 1321.94V1325.93H10.5V1321.94H7.5ZM7.5 1329.92V1333.92H10.5V1329.92H7.5ZM7.5 1337.91V1341.9H10.5V1337.91H7.5ZM7.5 1345.9V1349.89H10.5V1345.9H7.5ZM7.5 1353.89V1357.88H10.5V1353.89H7.5ZM7.5 1361.87V1365.87H10.5V1361.87H7.5ZM7.5 1369.86V1373.85H10.5V1369.86H7.5ZM7.5 1377.85V1381.84H10.5V1377.85H7.5ZM7.5 1385.84V1389.83H10.5V1385.84H7.5ZM7.5 1393.82V1397.82H10.5V1393.82H7.5ZM7.5 1401.81V1405.81H10.5V1401.81H7.5ZM7.5 1409.8V1413.79H10.5V1409.8H7.5ZM7.5 1417.79V1421.78H10.5V1417.79H7.5ZM7.5 1425.77V1429.77H10.5V1425.77H7.5ZM7.5 1433.76V1437.76H10.5V1433.76H7.5ZM7.5 1441.75V1445.74H10.5V1441.75H7.5ZM7.5 1449.74V1453.73H10.5V1449.74H7.5ZM7.5 1457.72V1461.72H10.5V1457.72H7.5ZM7.5 1465.71V1469.71H10.5V1465.71H7.5ZM7.5 1473.7V1477.69H10.5V1473.7H7.5ZM7.5 1481.69V1485.68H10.5V1481.69H7.5ZM7.5 1489.67V1493.67H10.5V1489.67H7.5ZM7.5 1497.66V1501.66H10.5V1497.66H7.5ZM7.5 1505.65V1509.64H10.5V1505.65H7.5ZM7.5 1513.64V1517.63H10.5V1513.64H7.5ZM7.5 1521.62V1525.62H10.5V1521.62H7.5ZM7.5 1529.61V1533.61H10.5V1529.61H7.5ZM7.5 1537.6V1541.59H10.5V1537.6H7.5ZM7.5 1545.59V1549.58H10.5V1545.59H7.5ZM7.5 1553.57V1557.57H10.5V1553.57H7.5ZM7.5 1561.56V1565.56H10.5V1561.56H7.5ZM7.5 1569.55V1573.54H10.5V1569.55H7.5ZM7.5 1577.54V1581.53H10.5V1577.54H7.5ZM7.5 1585.53V1589.52H10.5V1585.53H7.5ZM7.5 1593.51V1597.51H10.5V1593.51H7.5ZM7.5 1601.5V1605.49H10.5V1601.5H7.5ZM7.5 1609.49V1613.48H10.5V1609.49H7.5ZM7.5 1617.48V1621.47H10.5V1617.48H7.5ZM7.5 1625.46V1629.46H10.5V1625.46H7.5ZM7.5 1633.45V1637.44H10.5V1633.45H7.5ZM7.5 1641.44V1645.43H10.5V1641.44H7.5ZM7.5 1649.43V1653.42H10.5V1649.43H7.5ZM7.5 1657.41V1661.41H10.5V1657.41H7.5ZM7.5 1665.4V1669.39H10.5V1665.4H7.5ZM7.5 1673.39V1677.38H10.5V1673.39H7.5ZM7.5 1681.38V1685.37H10.5V1681.38H7.5ZM7.5 1689.36V1693.36H10.5V1689.36H7.5ZM7.5 1697.35V1701.34H10.5V1697.35H7.5ZM7.5 1705.34V1709.33H10.5V1705.34H7.5ZM7.5 1713.33V1717.32H10.5V1713.33H7.5ZM7.5 1721.31V1725.31H10.5V1721.31H7.5ZM7.5 1729.3V1733.29H10.5V1729.3H7.5ZM7.5 1737.29V1741.28H10.5V1737.29H7.5ZM7.5 1745.28V1749.27H10.5V1745.28H7.5ZM7.5 1753.26V1757.26H10.5V1753.26H7.5ZM7.5 1761.25V1765.24H10.5V1761.25H7.5ZM7.5 1769.24V1773.23H10.5V1769.24H7.5ZM7.5 1777.23V1781.22H10.5V1777.23H7.5ZM7.5 1785.21V1789.21H10.5V1785.21H7.5ZM7.5 1793.2V1797.2H10.5V1793.2H7.5ZM7.5 1801.19V1805.18H10.5V1801.19H7.5ZM7.5 1809.18V1813.17H10.5V1809.18H7.5ZM7.5 1817.16V1821.16H10.5V1817.16H7.5ZM7.5 1825.15V1829.15H10.5V1825.15H7.5ZM7.5 1833.14V1837.13H10.5V1833.14H7.5ZM7.5 1841.13V1845.12H10.5V1841.13H7.5ZM7.5 1849.11V1853.11H10.5V1849.11H7.5ZM7.5 1857.1V1861.1H10.5V1857.1H7.5ZM7.5 1865.09V1869.08H10.5V1865.09H7.5ZM7.5 1873.08V1877.07H10.5V1873.08H7.5ZM7.5 1881.06V1885.06H10.5V1881.06H7.5ZM7.5 1889.05V1893.05H10.5V1889.05H7.5ZM7.5 1897.04V1901.03H10.5V1897.04H7.5ZM7.5 1905.03V1909.02H10.5V1905.03H7.5ZM7.5 1913.01V1917.01H10.5V1913.01H7.5ZM7.5 1921V1925H10.5V1921H7.5ZM7.5 1928.99V1932.98H10.5V1928.99H7.5ZM7.5 1936.98V1940.97H10.5V1936.98H7.5ZM7.5 1944.96V1948.96H10.5V1944.96H7.5ZM7.5 1952.95V1956.95H10.5V1952.95H7.5ZM7.5 1960.94V1964.93H10.5V1960.94H7.5ZM7.5 1968.93V1972.92H10.5V1968.93H7.5ZM7.5 1976.91V1980.91H10.5V1976.91H7.5ZM7.5 1984.9V1988.9H10.5V1984.9H7.5ZM7.5 1992.89V1996.88H10.5V1992.89H7.5ZM7.5 2000.88V2004.87H10.5V2000.88H7.5ZM7.5 2008.87V2012.86H10.5V2008.87H7.5ZM7.5 2016.85V2020.85H10.5V2016.85H7.5ZM7.5 2024.84V2028.83H10.5V2024.84H7.5ZM7.5 2032.83V2036.82H10.5V2032.83H7.5ZM7.5 2040.82V2044.81H10.5V2040.82H7.5ZM7.5 2048.8V2052.8H10.5V2048.8H7.5ZM7.5 2056.79V2060.78H10.5V2056.79H7.5ZM7.5 2064.78V2068.77H10.5V2064.78H7.5ZM7.5 2072.76V2076.76H10.5V2072.76H7.5ZM7.5 2080.75V2084.75H10.5V2080.75H7.5ZM7.5 2088.74V2092.73H10.5V2088.74H7.5ZM7.5 2096.73V2100.72H10.5V2096.73H7.5ZM7.5 2104.71V2108.71H10.5V2104.71H7.5ZM7.5 2112.7V2116.69H10.5V2112.7H7.5ZM7.5 2120.69V2124.68H10.5V2120.69H7.5ZM7.5 2128.68V2132.67H10.5V2128.68H7.5ZM7.5 2136.66V2140.66H10.5V2136.66H7.5ZM7.5 2144.65V2148.64H10.5V2144.65H7.5ZM7.5 2152.64V2156.63H10.5V2152.64H7.5ZM7.5 2160.62V2164.62H10.5V2160.62H7.5ZM7.5 2168.61V2172.61H10.5V2168.61H7.5ZM7.5 2176.6V2180.59H10.5V2176.6H7.5ZM7.5 2184.59V2188.58H10.5V2184.59H7.5ZM7.5 2192.57V2196.57H10.5V2192.57H7.5ZM7.5 2200.56V2204.56H10.5V2200.56H7.5ZM7.5 2208.55V2212.54H10.5V2208.55H7.5ZM7.5 2216.54V2220.53H10.5V2216.54H7.5ZM7.5 2224.52V2228.52H10.5V2224.52H7.5ZM7.5 2232.51V2236.5H10.5V2232.51H7.5ZM7.5 2240.5V2244.49H10.5V2240.5H7.5ZM7.5 2248.49V2252.48H10.5V2248.49H7.5ZM7.5 2256.47V2260.47H10.5V2256.47H7.5ZM7.5 2264.46V2268.45H10.5V2264.46H7.5ZM7.5 2272.45V2276.44H10.5V2272.45H7.5ZM7.5 2280.43V2284.43H10.5V2280.43H7.5ZM7.5 2288.42V2292.42H10.5V2288.42H7.5ZM7.5 2296.41V2300.4H10.5V2296.41H7.5ZM7.5 2304.4V2308.39H10.5V2304.4H7.5ZM7.5 2312.38V2316.38H10.5V2312.38H7.5ZM7.5 2320.37V2324.36H10.5V2320.37H7.5ZM7.5 2328.36V2332.35H10.5V2328.36H7.5ZM7.5 2336.35V2340.34H10.5V2336.35H7.5ZM7.5 2344.33V2348.33H10.5V2344.33H7.5ZM7.5 2352.32V2356.31H10.5V2352.32H7.5ZM7.5 2360.31V2364.3H10.5V2360.31H7.5ZM7.5 2368.29V2372.29H10.5V2368.29H7.5ZM7.5 2376.28V2380.28H10.5V2376.28H7.5ZM7.5 2384.27V2388.26H10.5V2384.27H7.5ZM7.5 2392.26V2396.25H10.5V2392.26H7.5ZM7.5 2400.24V2404.24H10.5V2400.24H7.5ZM7.5 2408.23V2412.23H10.5V2408.23H7.5ZM7.5 2416.22V2420.21H10.5V2416.22H7.5ZM7.5 2424.21V2428.2H10.5V2424.21H7.5ZM7.5 2432.19V2436.19H10.5V2432.19H7.5ZM7.5 2440.18V2444.17H10.5V2440.18H7.5ZM7.5 2448.17V2452.16H10.5V2448.17H7.5ZM7.5 2456.16V2460.15H10.5V2456.16H7.5ZM7.5 2464.14V2468.14H10.5V2464.14H7.5ZM7.5 2472.13V2476.12H10.5V2472.13H7.5ZM7.5 2480.12V2484.11H10.5V2480.12H7.5ZM7.5 2488.1V2492.1H10.5V2488.1H7.5ZM7.5 2496.09V2500.09H10.5V2496.09H7.5ZM7.5 2504.08V2508.07H10.5V2504.08H7.5ZM7.5 2512.07V2516.06H10.5V2512.07H7.5ZM7.5 2520.05V2524.05H10.5V2520.05H7.5ZM7.5 2528.04V2532.03H10.5V2528.04H7.5ZM7.5 2536.03V2540.02H10.5V2536.03H7.5ZM7.5 2544.02V2548.01H10.5V2544.02H7.5ZM7.5 2552V2556H10.5V2552H7.5Z" fill="url(#paint0_linear_28_105)"/>
<defs>
<linearGradient id="paint0_linear_28_105" x1="9.5" y1="-2" x2="9.5" y2="2562" gradientUnits="userSpaceOnUse">
<stop stop-color="#50B03E"/>
<stop offset="0.65625" stop-color="#816214"/>
</linearGradient>
</defs>
</svg>
