<svg width="391" height="575" viewBox="0 0 391 575" fill="none" xmlns="http://www.w3.org/2000/svg">
<path d="M83.3968 9.3598C54.6137 22.9048 21.1325 57.6246 12.4856 85.1507C9.13797 95.8071 5.76249 115.246 17.8746 122.275C45.7522 138.454 89.414 129.219 117.074 118.284C147.897 106.098 176.158 85.5797 208.489 77.566C223.175 73.9258 243.661 71.9293 255.793 83.4541C266.868 93.9758 264.34 124.127 260.583 136.946C247.353 182.085 188.601 209.062 152.203 230.856C113.425 254.074 73.605 278.387 42.8241 312.091C32.5839 323.304 24.5042 339.243 27.056 355.004C28.254 362.403 34.2458 367.032 40.1296 370.872C67.6881 388.858 112.723 369.836 138.63 362.788C167.581 354.913 196.013 345.171 225.055 337.639C259.396 328.733 320.803 309.088 361.379 320.175C399.044 330.466 374.811 377.194 361.678 395.223C341.534 422.878 314.65 442.619 287.628 462.886C273.358 473.589 262.929 486.57 255.249 503.328C247.568 520.086 248.259 541.657 261.175 553.275C292.961 581.869 344.138 554.122 354.72 523.222" stroke="url(#paint0_linear_396_78)" stroke-opacity="0.45" stroke-width="17.7778" stroke-linecap="round"/>
<defs>
<linearGradient id="paint0_linear_396_78" x1="195.448" y1="16.6893" x2="195.448" y2="550.587" gradientUnits="userSpaceOnUse">
<stop stop-color="#34BEED"/>
<stop offset="1" stop-color="#2C48DA"/>
</linearGradient>
</defs>
</svg>
